<svg xmlns="http://www.w3.org/2000/svg" height="48" viewBox="0 -960 960 960" width="48"><path d="M280-220q-107.917 0-183.458-75.971Q21-371.941 21-480.471 21-589 96.542-664.5 172.083-740 280-740h400q107.917 0 183.458 75.971Q939-588.059 939-479.529 939-371 863.458-295.5 787.917-220 680-220H280Zm0-80h399.422q75.235 0 127.407-52.5Q859-405 859-480t-52.29-127.5Q754.42-660 679.714-660H280.292q-73.942 0-126.617 52.536Q101-554.927 101-479.876q0 75.051 52.794 127.463Q206.588-300 280-300Zm400.588-82q41.054 0 69.733-28.532Q779-439.064 779-479.824q0-40.759-28.738-69.468Q721.525-578 680.471-578t-69.263 28.532Q583-520.936 583-480.176q0 40.759 28.267 69.468Q639.534-382 680.588-382ZM480-480Z"/></svg>